<?xml version="1.0" encoding="UTF-8"?>
<svg width="16px" height="11px" viewBox="0 0 16 11" version="1.1" xmlns="http://www.w3.org/2000/svg" xmlns:xlink="http://www.w3.org/1999/xlink">
    <!-- Generator: Sketch 58 (84663) - https://sketch.com -->
    <title>Group</title>
    <desc>Created with Sketch.</desc>
    <g id="Symbols" stroke="none" stroke-width="1" fill="none" fill-rule="evenodd">
        <g id="Nav" transform="translate(-249.000000, -40.000000)" fill-rule="nonzero">
            <g id="Group" transform="translate(249.000000, 40.000000)">
                <rect id="Rectangle" fill="#FFFFFF" x="0" y="0" width="16" height="11"></rect>
                <rect id="Rectangle" fill="#DF4317" x="7" y="0" width="9" height="1"></rect>
                <rect id="Rectangle" fill="#DF4317" x="7" y="2" width="9" height="1"></rect>
                <rect id="Rectangle" fill="#DF4317" x="7" y="4" width="9" height="1"></rect>
                <rect id="Rectangle" fill="#DF4317" x="7" y="6" width="9" height="1"></rect>
                <rect id="Rectangle" fill="#DF4317" x="0" y="8" width="16" height="1"></rect>
                <rect id="Rectangle" fill="#DF4317" x="0" y="10" width="16" height="1"></rect>
                <rect id="Rectangle" fill="#1F34B2" x="0" y="0" width="8" height="7"></rect>
                <rect id="Rectangle" fill="#FFFFFF" x="1" y="1" width="1" height="1"></rect>
                <rect id="Rectangle" fill="#FFFFFF" x="3" y="1" width="1" height="1"></rect>
                <rect id="Rectangle" fill="#FFFFFF" x="5" y="1" width="1" height="1"></rect>
                <rect id="Rectangle" fill="#FFFFFF" x="2" y="3" width="1" height="1"></rect>
                <rect id="Rectangle" fill="#FFFFFF" x="4" y="3" width="1" height="1"></rect>
                <rect id="Rectangle" fill="#FFFFFF" x="6" y="3" width="1" height="1"></rect>
                <rect id="Rectangle" fill="#FFFFFF" x="1" y="5" width="1" height="1"></rect>
                <rect id="Rectangle" fill="#FFFFFF" x="3" y="5" width="1" height="1"></rect>
                <rect id="Rectangle" fill="#FFFFFF" x="5" y="5" width="1" height="1"></rect>
            </g>
        </g>
    </g>
</svg>